<svg width="26" height="26" viewBox="0 0 26 26" fill="none" xmlns="http://www.w3.org/2000/svg">
<circle cx="13" cy="12.7804" r="12.5" fill="white" fill-opacity="0.1"/>
<path d="M8.87361 10.3808C8.63727 10.1525 8.32074 10.0262 7.99219 10.029C7.66364 10.0319 7.34934 10.1637 7.11701 10.396C6.88468 10.6283 6.7529 10.9426 6.75005 11.2712C6.74719 11.5997 6.87349 11.9162 7.10175 12.1526L12.1141 17.1649C12.3491 17.3998 12.6677 17.5318 13 17.5318C13.3323 17.5318 13.6509 17.3998 13.8859 17.1649L18.8983 12.1526C19.1265 11.9162 19.2528 11.5997 19.25 11.2712C19.2471 10.9426 19.1153 10.6283 18.883 10.396C18.6507 10.1637 18.3364 10.0319 18.0078 10.029C17.6793 10.0262 17.3627 10.1525 17.1264 10.3808L13 14.5071L8.87361 10.3808Z" fill="white" fill-opacity="0.9"/>
</svg>
