<svg width="26" height="26" viewBox="0 0 26 26" fill="none" xmlns="http://www.w3.org/2000/svg">
<path d="M4.16211 4.16211L2.50195 2.50195C1.76465 1.76465 0.5 2.28711 0.5 3.32715V8.70312C0.5 9.35254 1.02246 9.875 1.67188 9.875H7.04785C8.09277 9.875 8.61523 8.61035 7.87793 7.87305L6.37402 6.36914C8.06836 4.6748 10.4121 3.625 13 3.625C18.1758 3.625 22.375 7.82422 22.375 13C22.375 18.1758 18.1758 22.375 13 22.375C11.0078 22.375 9.16211 21.7549 7.64355 20.6953C6.93555 20.2021 5.96387 20.373 5.46582 21.0811C4.96777 21.7891 5.14355 22.7607 5.85156 23.2588C7.88281 24.6699 10.3486 25.5 13 25.5C19.9043 25.5 25.5 19.9043 25.5 13C25.5 6.0957 19.9043 0.5 13 0.5C9.54785 0.5 6.42285 1.90137 4.16211 4.16211ZM13 6.75C12.3506 6.75 11.8281 7.27246 11.8281 7.92188V13C11.8281 13.3125 11.9502 13.6104 12.1699 13.8301L15.6855 17.3457C16.1445 17.8047 16.8867 17.8047 17.3408 17.3457C17.7949 16.8867 17.7998 16.1445 17.3408 15.6904L14.167 12.5166V7.92188C14.167 7.27246 13.6445 6.75 12.9951 6.75H13Z" fill="white"/>
</svg>
