<svg width="28" height="26" viewBox="0 0 28 26" fill="none" xmlns="http://www.w3.org/2000/svg">
<path d="M22.0731 14.5661C25.2035 14.5661 27.3928 17.2304 27.3928 20.5072C27.3928 22.1554 26.0928 23.4947 24.4963 23.4947H23.5785C23.1767 23.4947 22.8749 23.1411 22.9231 22.7411C22.9463 22.5322 22.9588 22.3197 22.9588 22.1036V21.2161C22.9588 19.1518 22.3338 17.2286 21.2624 15.6215C20.9624 15.1697 21.2624 14.5661 21.8017 14.5661H22.0731ZM20.6963 12.7804C18.7267 12.7804 17.1249 10.9786 17.1249 8.76254C17.1249 6.32325 18.5267 4.74468 20.6963 4.74468C22.866 4.74468 24.2678 6.32325 24.2678 8.76254C24.2678 10.9786 22.666 12.7804 20.6963 12.7804ZM12.5213 13.6733C16.7821 13.6733 20.2499 17.0572 20.2499 21.2161V22.1036C20.2499 23.8554 18.791 25.2804 16.9946 25.2804H3.86241C2.06598 25.2804 0.607056 23.8554 0.607056 22.1036V21.2161C0.607056 17.0572 4.07313 13.6733 8.33563 13.6733H12.5213ZM15.3392 5.63754C15.3392 8.5929 13.1374 10.9947 10.4285 10.9947C7.72134 10.9947 5.51777 8.5929 5.51777 5.63754C5.51777 2.33397 7.39991 0.280396 10.4285 0.280396C13.4588 0.280396 15.3392 2.33397 15.3392 5.63754Z" fill="white"/>
</svg>
