<svg width="31" height="31" viewBox="0 0 31 31" fill="none" xmlns="http://www.w3.org/2000/svg">
<path d="M9.5215 27.4731C9.07793 27.4731 8.71793 27.1131 8.71793 26.6695C8.71793 26.226 9.07793 25.866 9.5215 25.866H20.7715C21.2151 25.866 21.5751 26.226 21.5751 26.6695C21.5751 27.1131 21.2151 27.4731 20.7715 27.4731H9.5215ZM18.5354 14.1831L13.0626 17.4799C12.5654 17.7788 11.9322 17.422 11.9322 16.8413V10.2467C11.9322 9.66704 12.5654 9.30918 13.0626 9.60811L18.5354 12.906C19.0165 13.1953 19.0165 13.8928 18.5354 14.1831ZM23.4501 22.116C24.7808 22.116 25.8608 21.036 25.8608 19.7053V7.38382C25.8608 6.05311 24.7808 4.97311 23.4501 4.97311H6.84293C5.51222 4.97311 4.43222 6.05311 4.43222 7.38382V19.7053C4.43222 21.036 5.51222 22.116 6.84293 22.116H23.4501ZM23.4501 23.7231H6.84293C4.624 23.7231 2.82507 21.9242 2.82507 19.7053V7.38382C2.82507 5.1649 4.624 3.36597 6.84293 3.36597H23.4501C25.669 3.36597 27.4679 5.1649 27.4679 7.38382V19.7053C27.4679 21.9242 25.669 23.7231 23.4501 23.7231Z" fill="white"/>
</svg>
