<svg width="31" height="31" viewBox="0 0 31 31" fill="none" xmlns="http://www.w3.org/2000/svg">
<path d="M18.8964 25.866H23.45C23.8936 25.866 24.2536 25.506 24.2536 25.0624V15.4195H24.2868C24.1079 15.3306 23.9386 15.2213 23.7832 15.0917L23.3536 14.7328C23.2539 14.6513 23.1104 14.6513 23.0107 14.7338L22.835 14.8806C22.2082 15.4013 21.4197 15.6874 20.6054 15.6874H20.3632C19.5543 15.6874 18.77 15.4056 18.1464 14.8903L17.9493 14.7274C17.8497 14.646 17.7072 14.646 17.6086 14.7274L17.4104 14.8913C16.7857 15.4056 16.0014 15.6874 15.1936 15.6874H15.0468C14.2486 15.6874 13.4739 15.4131 12.8547 14.9106L12.6232 14.7231C12.5236 14.6428 12.3811 14.6438 12.2836 14.7253L12.0982 14.8806C11.4714 15.4024 10.6829 15.6874 9.86859 15.6874H9.67788C8.87109 15.6874 8.09002 15.4078 7.46645 14.8956L7.25859 14.7242C7.15895 14.6428 7.01752 14.6428 6.91788 14.7242L6.41324 15.1399C6.28145 15.2481 6.13788 15.3424 5.98788 15.4195H6.03931V25.0624C6.03931 25.506 6.39931 25.866 6.84288 25.866H11.3964V19.1695C11.3964 18.4303 11.9964 17.8303 12.7357 17.8303H17.5572C18.2964 17.8303 18.8964 18.4303 18.8964 19.1695V25.866ZM4.08181 9.79454H26.2111C26.1822 9.69811 26.1511 9.60275 26.1157 9.50847L24.8825 6.15704C24.5997 5.4424 23.9086 4.97311 23.1404 4.97311H7.15359C6.38431 4.97311 5.69324 5.4424 5.41681 6.13882L4.17716 9.50847C4.14181 9.60275 4.11074 9.69811 4.08181 9.79454ZM26.3964 11.4017H3.89645V13.2767C3.89645 13.7203 4.25645 14.0803 4.70002 14.0803H4.88324C5.06966 14.0803 5.24966 14.016 5.39323 13.8981L5.89788 13.4835C6.58895 12.9145 7.58752 12.9145 8.27859 13.4835L8.48645 13.6538C8.82181 13.9292 9.24288 14.0803 9.67788 14.0803H9.86859C10.3068 14.0803 10.7322 13.927 11.0686 13.6463L11.255 13.491C11.9429 12.9178 12.9404 12.9113 13.6347 13.4749L13.8661 13.6613C14.2004 13.9324 14.6172 14.0803 15.0468 14.0803H15.1936C15.6286 14.0803 16.0507 13.9281 16.3872 13.6517L16.5854 13.4878C17.2775 12.9156 18.2793 12.9156 18.9725 13.4878L19.1697 13.6517C19.505 13.9281 19.9272 14.0803 20.3632 14.0803H20.6054C21.0436 14.0803 21.4689 13.926 21.8064 13.6453L21.9822 13.4995C22.6764 12.9188 23.6879 12.9188 24.3822 13.4985L24.8129 13.8574C24.9854 14.001 25.2039 14.0803 25.43 14.0803C25.9647 14.0803 26.3964 13.6485 26.3964 13.116V11.4017ZM25.8607 15.652V25.0624C25.8607 26.3942 24.7818 27.4731 23.45 27.4731H6.84288C5.51109 27.4731 4.43216 26.3942 4.43216 25.0624V15.6724C3.22681 15.5395 2.28931 14.5174 2.28931 13.2767V11.0813C2.28931 10.3538 2.41788 9.63382 2.66859 8.9524L3.91574 5.56454C4.44288 4.23704 5.72538 3.36597 7.15359 3.36597H23.1404C24.5675 3.36597 25.85 4.23704 26.3836 5.58275L27.6243 8.9524C27.875 9.63382 28.0036 10.3538 28.0036 11.0813V13.116C28.0036 14.3899 27.0768 15.4474 25.8607 15.652ZM17.2893 25.866V19.4374H13.0036V25.866H17.2893Z" fill="white"/>
</svg>
