<svg width="31" height="31" viewBox="0 0 31 31" fill="none" xmlns="http://www.w3.org/2000/svg">
<path d="M27.4679 15.4195C27.4679 8.6149 21.9511 3.09811 15.1465 3.09811C8.34182 3.09811 2.82504 8.6149 2.82504 15.4195C2.82504 22.2242 8.34182 27.741 15.1465 27.741C21.9511 27.741 27.4679 22.2242 27.4679 15.4195ZM29.075 15.4195C29.075 23.1124 22.8393 29.3481 15.1465 29.3481C7.45361 29.3481 1.2179 23.1124 1.2179 15.4195C1.2179 7.72668 7.45361 1.49097 15.1465 1.49097C22.8393 1.49097 29.075 7.72668 29.075 15.4195ZM8.15968 15.4195H8.32254C8.64611 15.4195 8.82718 15.7817 8.64718 16.0528C8.00432 17.017 7.62825 18.171 7.62825 19.4095V19.942C7.62825 20.0717 7.63575 20.1992 7.65075 20.3245C7.67861 20.5645 7.49861 20.7767 7.25754 20.7767H6.70682C5.7479 20.7767 4.9679 19.9731 4.9679 18.9842C4.9679 17.0181 6.28254 15.4195 8.15968 15.4195ZM22.1333 15.4195C24.0115 15.4195 25.325 17.0181 25.325 18.9842C25.325 19.9731 24.545 20.7767 23.5872 20.7767H23.0365C22.7954 20.7767 22.6143 20.5645 22.6433 20.3245C22.6572 20.1992 22.6647 20.0717 22.6647 19.942V19.4095C22.6647 18.171 22.2897 17.017 21.6468 16.0528C21.4668 15.7817 21.6468 15.4195 21.9704 15.4195H22.1333ZM8.98575 14.3481C7.80397 14.3481 6.8429 13.267 6.8429 11.9374C6.8429 10.4738 7.68397 9.52668 8.98575 9.52668C10.2875 9.52668 11.1286 10.4738 11.1286 11.9374C11.1286 13.267 10.1675 14.3481 8.98575 14.3481ZM21.3072 14.3481C20.1254 14.3481 19.1643 13.267 19.1643 11.9374C19.1643 10.4738 20.0054 9.52668 21.3072 9.52668C22.609 9.52668 23.45 10.4738 23.45 11.9374C23.45 13.267 22.489 14.3481 21.3072 14.3481ZM16.4022 14.8838C18.9586 14.8838 21.0393 16.9142 21.0393 19.4095V19.942C21.0393 20.9931 20.164 21.8481 19.0861 21.8481H11.2068C10.129 21.8481 9.25361 20.9931 9.25361 19.942V19.4095C9.25361 16.9142 11.3333 14.8838 13.8908 14.8838H16.4022ZM18.0929 10.0624C18.0929 11.8356 16.7718 13.2767 15.1465 13.2767C13.5222 13.2767 12.2 11.8356 12.2 10.0624C12.2 8.08025 13.3293 6.84811 15.1465 6.84811C16.9647 6.84811 18.0929 8.08025 18.0929 10.0624Z" fill="white"/>
</svg>
