<svg width="31" height="31" viewBox="0 0 31 31" fill="none" xmlns="http://www.w3.org/2000/svg">
<g clip-path="url(#clip0_2_72)">
<path d="M7.64648 13.2321V18.2321C7.64648 18.4807 7.74526 18.7192 7.92108 18.895C8.09689 19.0708 8.33534 19.1696 8.58398 19.1696C8.83262 19.1696 9.07108 19.0708 9.24689 18.895C9.42271 18.7192 9.52148 18.4807 9.52148 18.2321V13.2321C9.52148 12.9834 9.42271 12.745 9.24689 12.5691C9.07108 12.3933 8.83262 12.2946 8.58398 12.2946C8.33534 12.2946 8.09689 12.3933 7.92108 12.5691C7.74526 12.745 7.64648 12.9834 7.64648 13.2321Z" fill="white"/>
<path d="M6.08398 16.6696H11.084C11.3326 16.6696 11.5711 16.5708 11.7469 16.395C11.9227 16.2192 12.0215 15.9807 12.0215 15.7321C12.0215 15.4834 11.9227 15.245 11.7469 15.0691C11.5711 14.8933 11.3326 14.7946 11.084 14.7946H6.08398C5.83534 14.7946 5.59689 14.8933 5.42108 15.0691C5.24526 15.245 5.14648 15.4834 5.14648 15.7321C5.14648 15.9807 5.24526 16.2192 5.42108 16.395C5.59689 16.5708 5.83534 16.6696 6.08398 16.6696Z" fill="white"/>
<path d="M21.3965 24.1696H8.89648C6.57584 24.1696 4.35025 23.2477 2.7093 21.6067C1.06836 19.9658 0.146484 17.7402 0.146484 15.4196C0.146484 13.0989 1.06836 10.8733 2.7093 9.23237C4.35025 7.59143 6.57584 6.66956 8.89648 6.66956H21.3965C23.7171 6.66956 25.9427 7.59143 27.5837 9.23237C29.2246 10.8733 30.1465 13.0989 30.1465 15.4196C30.1465 17.7402 29.2246 19.9658 27.5837 21.6067C25.9427 23.2477 23.7171 24.1696 21.3965 24.1696ZM21.3965 22.2946C23.2198 22.2946 24.9685 21.5702 26.2578 20.2809C27.5472 18.9916 28.2715 17.2429 28.2715 15.4196C28.2715 13.5962 27.5472 11.8475 26.2578 10.5582C24.9685 9.26888 23.2198 8.54456 21.3965 8.54456H8.89648C7.07312 8.54456 5.32444 9.26888 4.03513 10.5582C2.74582 11.8475 2.02148 13.5962 2.02148 15.4196C2.02148 17.2429 2.74582 18.9916 4.03513 20.2809C5.32444 21.5702 7.07312 22.2946 8.89648 22.2946H21.3965Z" fill="white"/>
<path fill-rule="evenodd" clip-rule="evenodd" d="M20.7715 17.6071C20.7715 18.0215 20.6069 18.4189 20.3138 18.7119C20.0208 19.0049 19.6234 19.1696 19.209 19.1696C18.7946 19.1696 18.3972 19.0049 18.1041 18.7119C17.8111 18.4189 17.6465 18.0215 17.6465 17.6071C17.6465 17.1927 17.8111 16.7952 18.1041 16.5022C18.3972 16.2092 18.7946 16.0446 19.209 16.0446C19.6234 16.0446 20.0208 16.2092 20.3138 16.5022C20.6069 16.7952 20.7715 17.1927 20.7715 17.6071ZM24.5215 13.8571C24.5215 14.2715 24.3569 14.6689 24.0638 14.9619C23.7708 15.2549 23.3734 15.4196 22.959 15.4196C22.5446 15.4196 22.1472 15.2549 21.8541 14.9619C21.5611 14.6689 21.3965 14.2715 21.3965 13.8571C21.3965 13.4427 21.5611 13.0452 21.8541 12.7522C22.1472 12.4592 22.5446 12.2946 22.959 12.2946C23.3734 12.2946 23.7708 12.4592 24.0638 12.7522C24.3569 13.0452 24.5215 13.4427 24.5215 13.8571Z" fill="white"/>
</g>
<defs>
<clipPath id="clip0_2_72">
<rect width="30" height="30" fill="white" transform="translate(0.146484 0.419556)"/>
</clipPath>
</defs>
</svg>
