<svg width="41" height="41" viewBox="0 0 41 41" fill="none" xmlns="http://www.w3.org/2000/svg">
<circle cx="20.2482" cy="20.5" r="20" fill="white" fill-opacity="0.1"/>
<g clip-path="url(#clip0_3_102)">
<path d="M13.43 16.4091C14.9362 16.4091 16.1572 15.188 16.1572 13.6818C16.1572 12.1756 14.9362 10.9545 13.43 10.9545C11.9237 10.9545 10.7027 12.1756 10.7027 13.6818C10.7027 15.188 11.9237 16.4091 13.43 16.4091Z" fill="white"/>
<path d="M20.2481 16.4091C21.7544 16.4091 22.9754 15.188 22.9754 13.6818C22.9754 12.1756 21.7544 10.9545 20.2481 10.9545C18.7419 10.9545 17.5209 12.1756 17.5209 13.6818C17.5209 15.188 18.7419 16.4091 20.2481 16.4091Z" fill="white"/>
<path d="M27.0663 16.4091C28.5726 16.4091 29.7936 15.188 29.7936 13.6818C29.7936 12.1756 28.5726 10.9545 27.0663 10.9545C25.5601 10.9545 24.3391 12.1756 24.3391 13.6818C24.3391 15.188 25.5601 16.4091 27.0663 16.4091Z" fill="white"/>
<path d="M13.43 23.2273C14.9362 23.2273 16.1572 22.0062 16.1572 20.5C16.1572 18.9937 14.9362 17.7727 13.43 17.7727C11.9237 17.7727 10.7027 18.9937 10.7027 20.5C10.7027 22.0062 11.9237 23.2273 13.43 23.2273Z" fill="white"/>
<path d="M20.2481 23.2273C21.7544 23.2273 22.9754 22.0062 22.9754 20.5C22.9754 18.9937 21.7544 17.7727 20.2481 17.7727C18.7419 17.7727 17.5209 18.9937 17.5209 20.5C17.5209 22.0062 18.7419 23.2273 20.2481 23.2273Z" fill="white"/>
<path d="M27.0663 23.2273C28.5726 23.2273 29.7936 22.0062 29.7936 20.5C29.7936 18.9937 28.5726 17.7727 27.0663 17.7727C25.5601 17.7727 24.3391 18.9937 24.3391 20.5C24.3391 22.0062 25.5601 23.2273 27.0663 23.2273Z" fill="white"/>
<path d="M13.43 30.0454C14.9362 30.0454 16.1572 28.8244 16.1572 27.3182C16.1572 25.8119 14.9362 24.5909 13.43 24.5909C11.9237 24.5909 10.7027 25.8119 10.7027 27.3182C10.7027 28.8244 11.9237 30.0454 13.43 30.0454Z" fill="white"/>
<path d="M20.2481 30.0454C21.7544 30.0454 22.9754 28.8244 22.9754 27.3182C22.9754 25.8119 21.7544 24.5909 20.2481 24.5909C18.7419 24.5909 17.5209 25.8119 17.5209 27.3182C17.5209 28.8244 18.7419 30.0454 20.2481 30.0454Z" fill="white"/>
<path d="M27.0663 30.0454C28.5726 30.0454 29.7936 28.8244 29.7936 27.3182C29.7936 25.8119 28.5726 24.5909 27.0663 24.5909C25.5601 24.5909 24.3391 25.8119 24.3391 27.3182C24.3391 28.8244 25.5601 30.0454 27.0663 30.0454Z" fill="white"/>
</g>
<defs>
<clipPath id="clip0_3_102">
<rect width="20" height="20" fill="white" transform="translate(10.2482 10.5)"/>
</clipPath>
</defs>
</svg>
