<svg width="41" height="41" viewBox="0 0 41 41" fill="none" xmlns="http://www.w3.org/2000/svg">
<circle cx="20.2482" cy="20.5" r="20" fill="white" fill-opacity="0.1"/>
<path d="M20.2481 11.9586C25.0767 11.9586 28.8196 15.4957 28.8196 20.2728C28.8196 25.05 25.0767 28.5871 20.2481 28.5871C19.41 28.5891 18.5754 28.4783 17.7667 28.2578C17.6148 28.2159 17.453 28.2277 17.3089 28.2914L15.6053 29.0421C15.5025 29.0874 15.3901 29.1068 15.2781 29.0985C15.1661 29.0903 15.0578 29.0547 14.9627 28.9948C14.8676 28.9349 14.7887 28.8526 14.7329 28.7552C14.677 28.6577 14.646 28.548 14.6424 28.4357L14.596 26.9114C14.5929 26.8186 14.5708 26.7275 14.5313 26.6435C14.4917 26.5595 14.4355 26.4844 14.366 26.4228C13.506 25.6481 12.8213 24.6987 12.3575 23.6381C11.8937 22.5776 11.6616 21.4303 11.6767 20.2728C11.6767 15.4957 15.4196 11.9586 20.2481 11.9586ZM15.101 22.7043C15.0501 22.785 15.0291 22.881 15.0417 22.9756C15.0544 23.0701 15.0998 23.1573 15.1702 23.2217C15.2405 23.2862 15.3313 23.3239 15.4266 23.3283C15.5219 23.3327 15.6158 23.3035 15.6917 23.2457L18.396 21.1928C18.4854 21.1256 18.5942 21.0893 18.706 21.0893C18.8178 21.0893 18.9266 21.1256 19.016 21.1928L21.016 22.6928C21.1581 22.7991 21.3206 22.8747 21.4933 22.9151C21.6661 22.9554 21.8453 22.9596 22.0197 22.9273C22.1942 22.8951 22.36 22.8271 22.5069 22.7276C22.6538 22.6281 22.7785 22.4993 22.8731 22.3493L25.391 18.355C25.4419 18.2743 25.4629 18.1783 25.4503 18.0837C25.4376 17.9891 25.3922 17.902 25.3218 17.8375C25.2515 17.773 25.1607 17.7353 25.0654 17.7309C24.9701 17.7266 24.8762 17.7558 24.8003 17.8136L22.096 19.8664C22.0066 19.9336 21.8978 19.97 21.786 19.97C21.6742 19.97 21.5654 19.9336 21.476 19.8664L19.476 18.3664C19.3339 18.2602 19.1714 18.1845 18.9987 18.1442C18.8259 18.1038 18.6467 18.0996 18.4723 18.1319C18.2978 18.1642 18.132 18.2322 17.9851 18.3317C17.8382 18.4312 17.7135 18.56 17.6189 18.71L15.101 22.7043Z" fill="white"/>
</svg>
