<svg width="41" height="41" viewBox="0 0 41 41" fill="none" xmlns="http://www.w3.org/2000/svg">
<circle cx="20.2482" cy="20.5" r="20" fill="white" fill-opacity="0.1"/>
<path d="M15.8532 27.2771C16.8246 27.2771 18.4217 27.1878 20.5817 26.79C20.2082 27.8057 19.2346 28.5335 18.091 28.5335C17.1403 28.5335 16.3074 28.03 15.8374 27.2771H15.8532ZM28.0503 21.7357C28.2267 22.6443 27.5896 23.4478 26.1553 24.1257C25.3696 24.4964 23.6224 25.2021 20.7367 25.7635C18.511 26.1957 16.8803 26.295 15.8539 26.295C15.5489 26.295 15.2967 26.2864 15.0982 26.275C13.5153 26.1843 12.6224 25.6771 12.446 24.7685C12.1782 23.3921 12.6017 22.8607 13.3039 21.9807L13.4889 21.7485C13.9624 21.1478 14.1474 20.5578 13.8446 19.0014C13.1667 15.5157 14.7367 13.1335 18.151 12.4664C21.5667 11.8071 23.9153 13.4257 24.5932 16.9121C24.8953 18.4685 25.2882 18.9457 25.9524 19.325V19.3257L26.211 19.4721C27.191 20.025 27.7825 20.3585 28.0503 21.7357Z" fill="white"/>
</svg>
