<svg width="37" height="36" viewBox="0 0 37 36" fill="none" xmlns="http://www.w3.org/2000/svg">
<circle cx="18.25" cy="18" r="15" fill="#2374E1"/>
<circle cx="18.25" cy="18" r="16.5" stroke="black" stroke-opacity="0.3" stroke-width="3"/>
<path d="M19.4038 11.6538C19.4038 11.0156 18.8882 10.5 18.25 10.5C17.6118 10.5 17.0962 11.0156 17.0962 11.6538V16.8462H11.9038C11.2656 16.8462 10.75 17.3618 10.75 18C10.75 18.6382 11.2656 19.1538 11.9038 19.1538H17.0962V24.3462C17.0962 24.9844 17.6118 25.5 18.25 25.5C18.8882 25.5 19.4038 24.9844 19.4038 24.3462V19.1538H24.5962C25.2344 19.1538 25.75 18.6382 25.75 18C25.75 17.3618 25.2344 16.8462 24.5962 16.8462H19.4038V11.6538Z" fill="white"/>
</svg>
