<svg width="9" height="9" viewBox="0 0 9 9" fill="none" xmlns="http://www.w3.org/2000/svg">
<path fill-rule="evenodd" clip-rule="evenodd" d="M7.30029 7.37101C8.09418 6.57712 8.54018 5.50038 8.54018 4.37765C8.54018 3.25493 8.09418 2.17818 7.30029 1.38429C6.50641 0.590407 5.42967 0.144409 4.30694 0.144409C3.18422 0.144409 2.10748 0.590407 1.31359 1.38429C0.519702 2.17818 0.0737 3.25493 0.0737 4.37765C0.0737 5.50038 0.519702 6.57712 1.31359 7.37101C2.10748 8.16489 3.18422 8.61089 4.30694 8.61089C5.42967 8.61089 6.50641 8.16489 7.30029 7.37101ZM5.45258 0.855182C5.47414 0.896274 5.49002 0.937764 5.50045 0.978395C5.57135 1.25038 5.45811 1.56099 5.21153 1.74937C5.14348 1.80073 5.06994 1.8407 4.99811 1.87974C4.8035 1.98551 4.62149 2.08444 4.59559 2.38437C4.58747 2.52236 4.6275 2.65889 4.70883 2.77066C4.91308 3.07069 4.83371 3.17281 4.65909 3.23102C4.39451 3.31939 4.0966 3.16223 3.77752 2.96644C3.27799 2.65953 2.9695 2.94528 2.82133 3.08286C2.61655 3.27176 2.63084 3.47284 2.77001 3.65963C2.89012 3.8078 3.07162 3.82949 3.24254 3.82579H3.26212C3.2727 3.82579 3.28382 3.82526 3.29493 3.82473L3.29494 3.82473C3.30605 3.8242 3.31716 3.82367 3.32774 3.82367L3.32932 3.82579C3.38383 3.82367 3.43886 3.82208 3.49495 3.82367L3.51881 3.82453C3.65511 3.82932 3.82548 3.8353 3.92039 3.9422C3.99236 4.02316 3.99235 4.13216 3.94685 4.22212H3.95002L3.93919 4.24196C3.89941 4.31429 3.86722 4.37281 3.94685 4.41262L3.99077 4.4285C3.99394 4.43061 3.99394 4.43061 3.99764 4.43061H3.99765C4.19328 4.49657 4.40101 4.51879 4.60617 4.49569C4.76388 4.47465 4.89971 4.43173 5.02322 4.3927C5.25072 4.3208 5.43643 4.26212 5.64015 4.37769C5.7104 4.41704 5.75976 4.49518 5.8101 4.57487C5.85455 4.64525 5.89977 4.71684 5.96081 4.76398C6.05847 4.83931 6.15668 4.86855 6.2512 4.89668C6.34257 4.92387 6.4305 4.95004 6.51113 5.01585C6.92526 5.35623 6.89104 5.51565 6.7842 6.01339L6.77571 6.05299C6.70217 6.39581 6.49241 7.06363 6.13343 7.60011C5.85854 7.7559 5.56475 7.87594 5.25932 7.95722C5.23124 7.85692 5.21064 7.75618 5.19211 7.6656L5.18311 7.62177C5.10585 7.25824 4.84975 6.7222 4.47934 6.70103C3.45807 6.64282 3.17603 5.91419 3.1829 5.70094C3.21836 4.74105 2.91833 4.44419 2.47754 4.44419C1.15095 4.44419 0.86732 3.46102 1.26577 2.28788C1.2724 2.26983 1.2792 2.25187 1.28618 2.23398C1.40568 2.06559 1.53981 1.90642 1.68776 1.75847C2.38241 1.06382 3.32456 0.673564 4.30694 0.673564C4.69967 0.673564 5.08596 0.735932 5.45258 0.855182Z" fill="white" fill-opacity="0.8"/>
</svg>
