<svg width="19" height="16" viewBox="0 0 19 16" fill="none" xmlns="http://www.w3.org/2000/svg">
<g clip-path="url(#clip0_1_112)">
<path d="M0.398438 4.57861C0.398438 3.54443 1.30253 2.70361 2.41452 2.70361H10.4789C11.5909 2.70361 12.495 3.54443 12.495 4.57861V12.0786C12.495 13.1128 11.5909 13.9536 10.4789 13.9536H2.41452C1.30253 13.9536 0.398438 13.1128 0.398438 12.0786V4.57861ZM18.0108 3.75244C18.3385 3.9165 18.5432 4.23291 18.5432 4.57861V12.0786C18.5432 12.4243 18.3385 12.7407 18.0108 12.9048C17.6832 13.0688 17.2863 13.0513 16.9745 12.8579L13.9503 10.9829L13.503 10.7046V10.2036V6.45361V5.95264L13.9503 5.67432L16.9745 3.79932C17.2832 3.60889 17.6801 3.58838 18.0108 3.75244Z" fill="white" fill-opacity="0.9"/>
</g>
<defs>
<clipPath id="clip0_1_112">
<rect width="18.1448" height="15" fill="white" transform="translate(0.398438 0.828613)"/>
</clipPath>
</defs>
</svg>
